<svg viewBox="0 0 512 512" xmlns="http://www.w3.org/2000/svg"><path d="m0 0h512v512h-512z"/><path d="m256 44.158-236.24 121.658 12.24 8.121 224-112 224 112 12.24-8.12-236.24-121.66zm0 37.904-215 107.5v305.438h30v-292h370v292h30v-305.438zm-164 140.938v18h328v-18zm0 36v18h328v-18zm100 36c-8.5 0-14.393 5.524-18.95 11.6-4.556 6.075-8.276 13.701-11.478 22.24-4.27 11.389-7.54 24.334-9.248 36.887-8.722-2.235-22.048-4.431-24.324 2.273-2.354 6.934 7.344 13.583 16.668 18.217-.32 1.067-.63 2.17-.906 3.344-1.793 7.619-2.762 17.039-2.762 26.439s.969 18.82 2.762 26.44c1.272 5.406 3.108 9.766 4.744 12.56h214.988c1.636-2.794 3.472-7.154 4.744-12.56 1.793-7.62 2.762-17.04 2.762-26.44s-.969-18.82-2.762-26.44a56.768 56.768 0 0 0 -.906-3.343c9.324-4.634 19.022-11.283 16.668-18.217-2.276-6.704-15.602-4.508-24.324-2.273-1.707-12.553-4.977-25.498-9.248-36.887-3.202-8.539-6.922-16.165-11.479-22.24-4.556-6.076-10.449-11.6-18.949-11.6zm0 18h128c-.5 0 1.607.476 4.55 4.4 2.944 3.925 6.224 10.299 9.022 17.76 3.673 9.795 6.488 21.437 8.028 32.414-23.405-6.449-49.42-6.574-85.6-6.574s-62.195.125-85.6 6.574c1.54-10.977 4.355-22.62 8.028-32.414 2.798-7.461 6.078-13.835 9.021-17.76 2.944-3.924 5.051-4.4 4.551-4.4zm-16 87a16 16 0 0 1 16 16 16 16 0 0 1 -16 16 16 16 0 0 1 -16-16 16 16 0 0 1 16-16zm160 0a16 16 0 0 1 16 16 16 16 0 0 1 -16 16 16 16 0 0 1 -16-16 16 16 0 0 1 16-16zm-183 73v22h30v-22zm176 0v22h30v-22z" fill="#fff"/></svg>