<svg viewBox="0 0 512 512" xmlns="http://www.w3.org/2000/svg" xmlns:xlink="http://www.w3.org/1999/xlink"><symbol id="a" viewBox="0 0 121 281"><use height="168" transform="translate(24.5 88.5)" width="72" xlink:href="#c"/><use height="281" width="121" xlink:href="#b"/></symbol><symbol id="b" viewBox="0 0 121 281"><path d="m116.5 219.7c0 31.4-25 56.8-56 56.8s-56-25.4-56-56.8a57 57 0 0 1 24-46.6v-136.1c0-18 14.3-32.5 32-32.5s32 14.5 32 32.5v136a57 57 0 0 1 24 46.7zm-52-135.2h28m-28-32h28m-28 64h28" fill="none" stroke="#000" stroke-linecap="round" stroke-linejoin="round" stroke-width="9"/></symbol><symbol id="c" viewBox="0 0 72 168"><circle cx="36" cy="132" r="36"/><path d="m36 12v120" fill="none" stroke="#000" stroke-linecap="round" stroke-miterlimit="10" stroke-width="24"/></symbol><use height="281" transform="translate(195.5 115.5)" width="121" xlink:href="#a"/><path d="m372.5 247c-1.1 0-2.3-.4-3.2-1.3l-19.3-18.4-19.3 18.4a4.7 4.7 0 0 1 -6.4 0 4.1 4.1 0 0 1 0-6l22.5-21.4a4.7 4.7 0 0 1 6.4 0l22.5 21.4a4.1 4.1 0 0 1 0 6c-.9.9-2 1.3-3.2 1.3z"/><path d="m372.5 274c-1.1 0-2.3-.4-3.2-1.3l-19.3-18.4-19.3 18.4a4.7 4.7 0 0 1 -6.4 0 4.1 4.1 0 0 1 0-6l22.5-21.4a4.7 4.7 0 0 1 6.4 0l22.5 21.4a4.1 4.1 0 0 1 0 6c-.9.9-2 1.3-3.2 1.3z"/><path d="m372.5 301c-1.1 0-2.3-.4-3.2-1.3l-19.3-18.4-19.3 18.4a4.7 4.7 0 0 1 -6.4 0 4.1 4.1 0 0 1 0-6l22.5-21.4a4.7 4.7 0 0 1 6.4 0l22.5 21.4a4.1 4.1 0 0 1 0 6c-.9.9-2 1.3-3.2 1.3z"/></svg>