<svg viewBox="0 0 1020.451 1059.981" xmlns="http://www.w3.org/2000/svg"><path d="M168.153 21.333H852.3v854.073H168.152zm595.41 88.735H256.887V786.67h506.676zm44.368 594.967H212.52V616.3h595.41zM510.226 535.55c-71.52-.075-129.477-58.032-129.553-129.545v-.007c0-100.67 88.114-191.712 98.185-201.74l31.368-31.367 31.368 31.37c10.027 10.07 98.185 101.068 98.185 201.738-.076 71.52-58.033 129.477-129.546 129.553h-.007zm0-230.4c-22.13 27.742-36.872 62.273-40.75 100.024l-.07.824c0 22.543 18.276 40.818 40.82 40.818s40.817-18.275 40.817-40.818c-3.943-38.576-18.687-73.107-41.12-101.237l.302.39zm-212.52 740.183H0v-88.735h297.705c22.543 0 40.818-18.275 40.818-40.818v-84.742h88.735v84.742c0 71.55-58.003 129.553-129.553 129.553zm722.746 0H722.525c-71.176-.622-128.71-58.155-129.33-129.272V831.04h88.734v84.564c.223 22.55 18.445 40.772 40.974 40.995h297.55z"/></svg>